<svg width="146" height="145" viewBox="0 0 146 145" fill="none" xmlns="http://www.w3.org/2000/svg">
<path d="M82.375 8.46875V13.1562C82.375 16.3789 84.4258 19.0156 87.3555 19.8945C110.207 26.3398 126.906 47.1406 126.906 71.75C126.906 101.633 102.59 125.656 73 125.656C43.1172 125.656 19.0938 101.633 19.0938 71.75C19.0938 47.1406 35.5 26.3398 58.3516 19.8945C61.2812 19.0156 63.625 16.3789 63.625 13.1562V8.46875C63.625 3.78125 59.2305 0.265625 54.543 1.4375C23.1953 9.64062 0.0507812 38.3516 0.34375 72.3359C0.34375 112.473 32.8633 144.699 73 144.406C113.137 144.406 145.656 111.887 145.656 71.75C145.656 38.0586 122.219 9.64062 90.8711 1.4375C86.4766 0.265625 82.375 3.78125 82.375 8.46875Z" fill="#F3F3F3"/>
</svg>
